<svg width="121" height="32" viewBox="0 0 121 32" fill="none" xmlns="http://www.w3.org/2000/svg">
<path d="M15 12.6667C15 11.3406 14.4732 10.0688 13.5355 9.13112C12.5979 8.19344 11.3261 7.66666 10 7.66666C8.67392 7.66666 7.40215 8.19344 6.46447 9.13112C5.52678 10.0688 5 11.3406 5 12.6667C5 18.5 2.5 20.1667 2.5 20.1667H17.5C17.5 20.1667 15 18.5 15 12.6667Z" stroke="#9FA6B1" stroke-width="1.67" stroke-linecap="round" stroke-linejoin="round"/>
<path d="M11.4417 23.5C11.2952 23.7526 11.0849 23.9622 10.8319 24.1079C10.5789 24.2537 10.292 24.3304 10 24.3304C9.70803 24.3304 9.42117 24.2537 9.16816 24.1079C8.91515 23.9622 8.70486 23.7526 8.55835 23.5" stroke="#9FA6B1" stroke-width="1.67" stroke-linecap="round" stroke-linejoin="round"/>
<rect x="40" y="4" width="1" height="24" fill="#EEEEEE"/>
<rect x="61" width="32" height="32" rx="6" fill="#F9FAFB"/>
<path opacity="0.5" d="M77 14.0859C78.8769 14.0859 80.3984 12.5644 80.3984 10.6875C80.3984 8.81059 78.8769 7.28906 77 7.28906C75.1231 7.28906 73.6016 8.81059 73.6016 10.6875C73.6016 12.5644 75.1231 14.0859 77 14.0859Z" fill="#9FA6B1"/>
<path d="M77 14.0859V7.28906C78.8738 7.28906 80.3984 8.81367 80.3984 10.6875C80.3984 12.5613 78.8738 14.0859 77 14.0859Z" fill="#9FA6B1"/>
<path opacity="0.5" d="M82.2734 20.1414V23.343C82.2734 24.0973 81.6598 24.7109 80.9055 24.7109H73.0945C72.3402 24.7109 71.7266 24.0973 71.7266 23.343V20.1414C71.7266 17.5348 73.8473 15.4141 76.4539 15.4141H77.5461C80.1527 15.4141 82.2734 17.5348 82.2734 20.1414Z" fill="#9FA6B1"/>
<path d="M82.2734 20.1414V23.343C82.2734 24.0973 81.6598 24.7109 80.9055 24.7109H77V15.4141H77.5461C80.1527 15.4141 82.2734 17.5348 82.2734 20.1414Z" fill="#9FA6B1"/>
<path d="M106 13.5L111 18.5L116 13.5" stroke="#9FA6B1" stroke-width="1.67" stroke-linecap="round" stroke-linejoin="round"/>
</svg>
